<?xml version="1.0" encoding="UTF-8"?>
<svg width="411px" height="251px" viewBox="0 0 411 251" version="1.1" xmlns="http://www.w3.org/2000/svg" xmlns:xlink="http://www.w3.org/1999/xlink">
    <!-- Generator: Sketch 45.1 (43504) - http://www.bohemiancoding.com/sketch -->
    <title>aquila</title>
    <desc>Created with Sketch.</desc>
    <defs></defs>
    <g id="Page-1" stroke="none" stroke-width="1" fill="none" fill-rule="evenodd">
        <g id="aquila" stroke="#000000" stroke-width="2">
            <path d="M212.769296,55.6128921 C235.164015,52.5437193 254.11214,54.7040836 269.613669,62.0939848 C285.115199,69.483886 314.483247,89.2640572 357.717813,121.434498 C357.429925,128.593998 356.447075,133.523072 354.769264,136.22172 C353.091453,138.920367 348.911824,142.294799 342.230377,146.345014 C291.693958,129.064187 258.104031,112.878144 241.460597,97.7868859 C224.817164,82.6956275 215.253397,68.6376296 212.769296,55.6128921 Z" id="Path-6"></path>
            <path d="M339.909995,107.294217 C348.439648,106.364305 354.663297,106.364305 358.580943,107.294217 C362.498588,108.224129 371.55992,111.852249 385.764939,118.178578 L358.580943,120.506841" id="Path-7"></path>
            <path d="M317.093734,139.430705 C319.41841,143.759576 322.545481,147.908476 326.474948,151.877406 C330.404415,155.846335 340.263958,161.59046 356.053575,169.109781 L340.322553,146.345014" id="Path-7"></path>
            <polygon id="Path-8" points="355.63743 133.558029 363.364834 140.896194 353.746847 137.090793"></polygon>
            <ellipse id="Oval" fill="#40E0D0" cx="285.243555" cy="100.967035" rx="8.5" ry="8"></ellipse>
        </g>
    </g>
</svg>