<?xml version="1.0" encoding="UTF-8"?>
<svg width="411px" height="251px" viewBox="0 0 411 251" version="1.1" xmlns="http://www.w3.org/2000/svg" xmlns:xlink="http://www.w3.org/1999/xlink">
    <!-- Generator: Sketch 45.1 (43504) - http://www.bohemiancoding.com/sketch -->
    <title>donke</title>
    <desc>Created with Sketch.</desc>
    <defs></defs>
    <g id="Page-1" stroke="none" stroke-width="1" fill="none" fill-rule="evenodd" stroke-linecap="round">
        <g id="donke" stroke="#000000" stroke-width="4">
            <path d="M174.78199,78.7252519 C174.317573,71.1951526 185.318189,59.8072004 194.284844,66.9527552 C203.251499,74.0983099 191.02184,85.2379378 185.957401,85.7496586" id="Path-11"></path>
            <path d="M197.493961,34.3095076 C197.029543,26.7794083 208.03016,15.3914561 216.996814,22.5370109 C225.963469,29.6825657 213.733811,40.8221935 208.669371,41.3339143" id="Path-11"></path>
            <path d="M197.493961,34.3095076 C197.029543,26.7794083 208.03016,15.3914561 216.996814,22.5370109 C225.963469,29.6825657 213.733811,40.8221935 208.669371,41.3339143" id="Path-11"></path>
            <path d="M267.636026,49.1070225 C267.171609,41.5769231 278.172225,30.188971 287.13888,37.3345257 C296.105535,44.4800805 283.875876,55.6197084 278.811437,56.1314291" id="Path-11" transform="translate(278.977788, 45.601112) rotate(30.000000) translate(-278.977788, -45.601112) "></path>
            <path d="M78.6281352,139.179643 C78.1637178,131.649544 89.1643342,120.261592 98.1309891,127.407147 C107.097644,134.552701 94.8679855,145.692329 89.8035461,146.20405" id="Path-11"></path>
            <path d="M101.340106,89.2555691 C100.875688,81.7254698 111.876305,70.3375176 120.84296,77.4830724 C129.809615,84.6286271 117.579956,95.768255 112.515517,96.2799757" id="Path-11"></path>
            <path d="M78.6281352,194.065342 C78.1637178,186.535243 89.1643342,175.147291 98.1309891,182.292846 C107.097644,189.4384 94.8679855,200.578028 89.8035461,201.089749" id="Path-11"></path>
            <path d="M298.187958,23.7791905 C297.723541,16.2490911 308.724157,4.86113896 317.690812,12.0066937 C326.657467,19.1522485 314.427808,30.2918764 309.363369,30.8035971" id="Path-11" transform="translate(309.529720, 20.273280) rotate(39.000000) translate(-309.529720, -20.273280) "></path>
        </g>
    </g>
</svg>