<?xml version="1.0" encoding="UTF-8"?>
<svg width="411px" height="251px" viewBox="0 0 411 251" version="1.1" xmlns="http://www.w3.org/2000/svg" xmlns:xlink="http://www.w3.org/1999/xlink">
    <!-- Generator: Sketch 45.1 (43504) - http://www.bohemiancoding.com/sketch -->
    <title>monumentall</title>
    <desc>Created with Sketch.</desc>
    <defs></defs>
    <g id="Page-1" stroke="none" stroke-width="1" fill="none" fill-rule="evenodd">
        <g id="monumentall" stroke="#000000" stroke-width="2">
            <g id="tree" transform="translate(288.814594, 68.852454)">
                <path d="" id="Path"></path>
                <polyline id="Path-2" points="0.646207279 19.0906245 17.593279 0.605720978 32.4582996 19.0906245"></polyline>
                <polyline id="Path-2" points="0.646207279 29.0906245 17.593279 10.605721 32.4582996 29.0906245"></polyline>
                <polyline id="Path-2" points="0.646207279 39.0906245 17.593279 20.605721 32.4582996 39.0906245"></polyline>
                <polyline id="Path-2" points="0.646207279 49.0906245 17.593279 30.605721 32.4582996 49.0906245"></polyline>
                <polyline id="Path-2" points="0.646207279 60.0906245 17.593279 41.605721 32.4582996 60.0906245"></polyline>
                <path d="M17,58.1276166 L17,73.7162014" id="Path-3"></path>
            </g>
            <g id="tree" transform="translate(235.746131, 105.852454)">
                <path d="" id="Path"></path>
                <polyline id="Path-2" points="0.646207279 19.0906245 17.593279 0.605720978 32.4582996 19.0906245"></polyline>
                <polyline id="Path-2" points="0.646207279 29.0906245 17.593279 10.605721 32.4582996 29.0906245"></polyline>
                <polyline id="Path-2" points="0.646207279 39.0906245 17.593279 20.605721 32.4582996 39.0906245"></polyline>
                <polyline id="Path-2" points="0.646207279 49.0906245 17.593279 30.605721 32.4582996 49.0906245"></polyline>
                <polyline id="Path-2" points="0.646207279 60.0906245 17.593279 41.605721 32.4582996 60.0906245"></polyline>
                <path d="M17,58.1276166 L17,73.7162014" id="Path-3"></path>
            </g>
            <g id="tree" transform="translate(362.524492, 127.920135)">
                <path d="" id="Path"></path>
                <polyline id="Path-2" points="0.646207279 19.0906245 17.593279 0.605720978 32.4582996 19.0906245"></polyline>
                <polyline id="Path-2" points="0.646207279 29.0906245 17.593279 10.605721 32.4582996 29.0906245"></polyline>
                <polyline id="Path-2" points="0.646207279 39.0906245 17.593279 20.605721 32.4582996 39.0906245"></polyline>
                <polyline id="Path-2" points="0.646207279 49.0906245 17.593279 30.605721 32.4582996 49.0906245"></polyline>
                <polyline id="Path-2" points="0.646207279 60.0906245 17.593279 41.605721 32.4582996 60.0906245"></polyline>
                <path d="M17,58.1276166 L17,73.7162014" id="Path-3"></path>
            </g>
            <g id="tree" transform="translate(283.530408, 159.176070)">
                <path d="" id="Path"></path>
                <polyline id="Path-2" points="0.646207279 19.0906245 17.593279 0.605720978 32.4582996 19.0906245"></polyline>
                <polyline id="Path-2" points="0.646207279 29.0906245 17.593279 10.605721 32.4582996 29.0906245"></polyline>
                <polyline id="Path-2" points="0.646207279 39.0906245 17.593279 20.605721 32.4582996 39.0906245"></polyline>
                <polyline id="Path-2" points="0.646207279 49.0906245 17.593279 30.605721 32.4582996 49.0906245"></polyline>
                <polyline id="Path-2" points="0.646207279 60.0906245 17.593279 41.605721 32.4582996 60.0906245"></polyline>
                <path d="M17,58.1276166 L17,73.7162014" id="Path-3"></path>
            </g>
            <polygon id="Path-4" fill="#00FFD4" points="25.5489215 100.430345 67.9387518 88.5300614 25.5489215 72.7281585 25.5489215 100.430345 25.5489215 151.014262"></polygon>
            <path d="M351.493233,43.1634497 C293.081143,16.1487353 252.653341,12.6601369 230.209826,32.6976543 C196.544554,62.7539305 218.161557,119.57971 168.254292,164.940412 C134.982783,195.180879 87.5461877,190.424256 25.9445077,150.670542" id="Path-5" stroke-dasharray="8,8,8,8"></path>
        </g>
    </g>
</svg>