<?xml version="1.0" encoding="UTF-8"?>
<svg width="411px" height="251px" viewBox="0 0 411 251" version="1.1" xmlns="http://www.w3.org/2000/svg" xmlns:xlink="http://www.w3.org/1999/xlink">
    <!-- Generator: Sketch 45.1 (43504) - http://www.bohemiancoding.com/sketch -->
    <title>votealert</title>
    <desc>Created with Sketch.</desc>
    <defs></defs>
    <g id="Page-1" stroke="none" stroke-width="1" fill="none" fill-rule="evenodd">
        <g id="votealert">
            <rect id="Rectangle-2" stroke="#000000" stroke-width="2" x="106" y="39" width="28" height="28"></rect>
            <rect id="Rectangle-2" stroke="#000000" stroke-width="2" x="106" y="134" width="28" height="28"></rect>
            <rect id="Rectangle-2" stroke="#000000" stroke-width="2" x="106" y="179.5" width="28" height="28"></rect>
            <rect id="Rectangle-2" stroke="#000000" stroke-width="2" x="106" y="86.5" width="28" height="28"></rect>
            <path d="M157,39.1800268 L157,67.7244824" id="Path-9" stroke="#000000" stroke-width="2"></path>
            <path d="M178,39.1800268 L178,67.7244824" id="Path-9" stroke="#000000" stroke-width="2"></path>
            <path d="M173,39.1800268 L173,67.7244824" id="Path-9" stroke="#000000" stroke-width="2"></path>
            <path d="M168,39.1800268 L168,67.7244824" id="Path-9" stroke="#000000" stroke-width="2"></path>
            <path d="M162,39.1800268 L162,67.7244824" id="Path-9" stroke="#000000" stroke-width="2"></path>
            <path d="M183,39.4555444 L183,68" id="Path-9" stroke="#000000" stroke-width="2"></path>
            <path d="M204,39.4555444 L204,68" id="Path-9" stroke="#000000" stroke-width="2"></path>
            <path d="M207,87.1800268 L207,115.724482" id="Path-9" stroke="#000000" stroke-width="2"></path>
            <path d="M228,87.1800268 L228,115.724482" id="Path-9" stroke="#000000" stroke-width="2"></path>
            <path d="M223,87.1800268 L223,115.724482" id="Path-9" stroke="#000000" stroke-width="2"></path>
            <path d="M218,87.1800268 L218,115.724482" id="Path-9" stroke="#000000" stroke-width="2"></path>
            <path d="M212,87.1800268 L212,115.724482" id="Path-9" stroke="#000000" stroke-width="2"></path>
            <path d="M233,87.4555444 L233,116" id="Path-9" stroke="#000000" stroke-width="2"></path>
            <path d="M243,87.4555444 L243,116" id="Path-9" stroke="#000000" stroke-width="2"></path>
            <path d="M199,39.4555444 L199,68" id="Path-9" stroke="#000000" stroke-width="2"></path>
            <path d="M194,39.4555444 L194,68" id="Path-9" stroke="#000000" stroke-width="2"></path>
            <path d="M188,39.4555444 L188,68" id="Path-9" stroke="#000000" stroke-width="2"></path>
            <path d="M249,87.1800268 L249,115.724482" id="Path-9" stroke="#000000" stroke-width="2"></path>
            <path d="M265,87.1800268 L265,115.724482" id="Path-9" stroke="#000000" stroke-width="2"></path>
            <path d="M260,87.1800268 L260,115.724482" id="Path-9" stroke="#000000" stroke-width="2"></path>
            <path d="M254,87.1800268 L254,115.724482" id="Path-9" stroke="#000000" stroke-width="2"></path>
            <path d="M232,39.4555444 L232,68" id="Path-9" stroke="#000000" stroke-width="2"></path>
            <path d="M227,39.4555444 L227,68" id="Path-9" stroke="#000000" stroke-width="2"></path>
            <path d="M222,39.4555444 L222,68" id="Path-9" stroke="#000000" stroke-width="2"></path>
            <path d="M216,39.4555444 L216,68" id="Path-9" stroke="#000000" stroke-width="2"></path>
            <path d="M253,39.4555444 L253,68" id="Path-9" stroke="#000000" stroke-width="2"></path>
            <path d="M248,39.4555444 L248,68" id="Path-9" stroke="#000000" stroke-width="2"></path>
            <path d="M243,39.4555444 L243,68" id="Path-9" stroke="#000000" stroke-width="2"></path>
            <path d="M237,39.4555444 L237,68" id="Path-9" stroke="#000000" stroke-width="2"></path>
            <path d="M280,39.4555444 L280,68" id="Path-9" stroke="#000000" stroke-width="2"></path>
            <path d="M275,39.4555444 L275,68" id="Path-9" stroke="#000000" stroke-width="2"></path>
            <path d="M270,39.4555444 L270,68" id="Path-9" stroke="#000000" stroke-width="2"></path>
            <path d="M264,39.4555444 L264,68" id="Path-9" stroke="#000000" stroke-width="2"></path>
            <path d="M173,87.4555444 L173,116" id="Path-9" stroke="#000000" stroke-width="2"></path>
            <path d="M168,87.4555444 L168,116" id="Path-9" stroke="#000000" stroke-width="2"></path>
            <path d="M163,87.4555444 L163,116" id="Path-9" stroke="#000000" stroke-width="2"></path>
            <path d="M157,87.4555444 L157,116" id="Path-9" stroke="#000000" stroke-width="2"></path>
            <path d="M195,87.4555444 L195,116" id="Path-9" stroke="#000000" stroke-width="2"></path>
            <path d="M190,87.4555444 L190,116" id="Path-9" stroke="#000000" stroke-width="2"></path>
            <path d="M185,87.4555444 L185,116" id="Path-9" stroke="#000000" stroke-width="2"></path>
            <path d="M173,133.455544 L173,162" id="Path-9" stroke="#000000" stroke-width="2"></path>
            <path d="M168,133.455544 L168,162" id="Path-9" stroke="#000000" stroke-width="2"></path>
            <path d="M163,133.455544 L163,162" id="Path-9" stroke="#000000" stroke-width="2"></path>
            <path d="M157,133.455544 L157,162" id="Path-9" stroke="#000000" stroke-width="2"></path>
            <path d="M194,133.455544 L194,162" id="Path-9" stroke="#000000" stroke-width="2"></path>
            <path d="M189,133.455544 L189,162" id="Path-9" stroke="#000000" stroke-width="2"></path>
            <path d="M184,133.455544 L184,162" id="Path-9" stroke="#000000" stroke-width="2"></path>
            <path d="M178,133.455544 L178,162" id="Path-9" stroke="#000000" stroke-width="2"></path>
            <path d="M221,133.455544 L221,162" id="Path-9" stroke="#000000" stroke-width="2"></path>
            <path d="M216,133.455544 L216,162" id="Path-9" stroke="#000000" stroke-width="2"></path>
            <path d="M211,133.455544 L211,162" id="Path-9" stroke="#000000" stroke-width="2"></path>
            <path d="M205,133.455544 L205,162" id="Path-9" stroke="#000000" stroke-width="2"></path>
            <path d="M171,178.455544 L171,207" id="Path-9" stroke="#000000" stroke-width="2"></path>
            <path d="M166,178.455544 L166,207" id="Path-9" stroke="#000000" stroke-width="2"></path>
            <path d="M161,178.455544 L161,207" id="Path-9" stroke="#000000" stroke-width="2"></path>
            <path d="M155,178.455544 L155,207" id="Path-9" stroke="#000000" stroke-width="2"></path>
            <path d="M192,178.455544 L192,207" id="Path-9" stroke="#000000" stroke-width="2"></path>
            <path d="M187,178.455544 L187,207" id="Path-9" stroke="#000000" stroke-width="2"></path>
            <path d="M182,178.455544 L182,207" id="Path-9" stroke="#000000" stroke-width="2"></path>
            <path d="M176,178.455544 L176,207" id="Path-9" stroke="#000000" stroke-width="2"></path>
            <path d="M234,178.455544 L234,207" id="Path-9" stroke="#000000" stroke-width="2"></path>
            <path d="M229,178.455544 L229,207" id="Path-9" stroke="#000000" stroke-width="2"></path>
            <path d="M224,178.455544 L224,207" id="Path-9" stroke="#000000" stroke-width="2"></path>
            <path d="M218,178.455544 L218,207" id="Path-9" stroke="#000000" stroke-width="2"></path>
            <polyline id="Path-10" stroke="#40E0D0" stroke-width="6" points="143.42957 77.4550482 118.446083 107.617805 102.081208 92.5364268"></polyline>
            <rect id="Rectangle" stroke="#000000" stroke-width="2" x="87" y="17" width="236" height="222"></rect>
        </g>
    </g>
</svg>